<svg width="8" height="8" viewBox="0 0 8 8" fill="none" xmlns="http://www.w3.org/2000/svg">
<path fill-rule="evenodd" clip-rule="evenodd" d="M0.17596 7.824C0.28846 7.93636 0.44096 7.99947 0.59996 7.99947C0.758961 7.99947 0.91146 7.93636 1.02396 7.824L6.79996 2.048V6.6C6.79996 6.75913 6.86317 6.91174 6.9757 7.02426C7.08822 7.13679 7.24083 7.2 7.39996 7.2C7.55909 7.2 7.7117 7.13679 7.82422 7.02426C7.93675 6.91174 7.99996 6.75913 7.99996 6.6V0.6C7.99996 0.44087 7.93675 0.288258 7.82422 0.175736C7.7117 0.063214 7.55909 0 7.39996 0H1.39996C1.24083 0 1.08822 0.063214 0.975696 0.175736C0.863174 0.288258 0.79996 0.44087 0.79996 0.6C0.79996 0.75913 0.863174 0.911742 0.975696 1.02426C1.08822 1.13679 1.24083 1.2 1.39996 1.2H5.95196L0.17596 6.976C0.0635998 7.0885 0.000488281 7.241 0.000488281 7.4C0.000488281 7.559 0.0635998 7.7115 0.17596 7.824Z" fill="#49DEFF"/>
</svg>
